<svg xmlns="http://www.w3.org/2000/svg" width="900" height="260" viewBox="0 0 900 260" role="img" aria-labelledby="title desc">
  <title id="title">Cryptographic Storage hero art</title>
  <desc id="desc">A secured data vault with a lock, key, encrypted blocks, and storage layers.</desc>
  <defs>
    <linearGradient id="panel" x1="0" x2="1" y1="0" y2="1">
      <stop offset="0" stop-color="#f7f6ff"/>
      <stop offset="1" stop-color="#e7ecff"/>
    </linearGradient>
    <linearGradient id="lock" x1="0" x2="1" y1="0" y2="1">
      <stop offset="0" stop-color="#60a5fa"/>
      <stop offset="1" stop-color="#4f46e5"/>
    </linearGradient>
    <filter id="shadow" x="-20%" y="-20%" width="140%" height="150%">
      <feDropShadow dx="0" dy="18" stdDeviation="20" flood-color="#4f46e5" flood-opacity=".22"/>
    </filter>
  </defs>
  <rect width="900" height="260" fill="url(#panel)"/>
  <g opacity=".42">
    <path d="M650 34h58v58h-58zM724 58h40v40h-40zM780 96h74v74h-74z" fill="#c7d2fe"/>
    <path d="M592 180h72v16h-72zM678 180h92v16h-92zM612 210h194v16H612z" fill="#dbe4ff"/>
    <path d="M650 34l29-16 29 16-29 16zM780 96l37-21 37 21-37 21z" fill="#eef2ff"/>
  </g>
  <g filter="url(#shadow)">
    <rect x="500" y="72" width="174" height="126" rx="24" fill="url(#lock)"/>
    <path d="M540 76v-8c0-38 23-64 56-64s56 26 56 64v8h-28v-8c0-22-10-38-28-38s-28 16-28 38v8z" fill="#93c5fd"/>
    <circle cx="587" cy="130" r="13" fill="#e0f2fe"/>
    <path d="M587 142v28" stroke="#e0f2fe" stroke-width="12" stroke-linecap="round"/>
  </g>
  <g filter="url(#shadow)">
    <rect x="312" y="74" width="124" height="92" rx="16" fill="#ffffff" stroke="#c7d2fe"/>
    <rect x="332" y="99" width="84" height="12" rx="6" fill="#c7d2fe"/>
    <rect x="332" y="128" width="64" height="12" rx="6" fill="#c7d2fe"/>
    <path d="M428 182h-84l-22 20 22 20h84l22-20z" fill="#818cf8"/>
    <circle cx="346" cy="202" r="8" fill="#eef2ff"/>
    <circle cx="374" cy="202" r="8" fill="#eef2ff"/>
    <circle cx="402" cy="202" r="8" fill="#eef2ff"/>
  </g>
  <path d="M690 162c36-2 66-21 88-58 12-19 26-32 43-38" fill="none" stroke="#ffffff" stroke-width="4" stroke-linecap="round" opacity=".8"/>
  <circle cx="824" cy="64" r="6" fill="#ffffff"/>
</svg>
