<svg xmlns="http://www.w3.org/2000/svg" viewBox="0 0 900 520" role="img" aria-labelledby="title desc">
  <title>Security documentation panel</title>
  <desc>Abstract security documentation panel with lock and layered documents.</desc>
  <rect width="900" height="520" rx="28" fill="#f5f8ff"/>
  <path d="M520 35h285c37 0 67 30 67 67v286c0 37-30 67-67 67H520V35Z" fill="#e9efff"/>
  <g fill="#dbe6ff">
    <rect x="603" y="130" width="116" height="78" rx="12"/>
    <rect x="655" y="72" width="96" height="64" rx="12"/>
    <rect x="692" y="206" width="156" height="94" rx="14"/>
  </g>
  <g fill="none" stroke="#b7caff" stroke-width="3">
    <path d="M202 355c118-112 229-146 333-102 116 49 184 22 244-83"/>
    <path d="M124 263c78-72 164-91 258-57 97 35 180 4 251-94"/>
  </g>
  <g transform="translate(558 146)">
    <rect x="0" y="86" width="206" height="160" rx="28" fill="#1565ff"/>
    <path d="M55 86V55C55 25 78 0 103 0s48 25 48 55v31" fill="none" stroke="#1565ff" stroke-width="28" stroke-linecap="round"/>
    <circle cx="103" cy="162" r="18" fill="#fff"/>
    <rect x="94" y="162" width="18" height="44" rx="9" fill="#fff"/>
  </g>
  <g fill="#b7caff">
    <rect x="92" y="88" width="82" height="82" rx="14"/>
    <rect x="208" y="116" width="58" height="58" rx="12"/>
    <rect x="116" y="224" width="154" height="54" rx="12"/>
    <rect x="303" y="83" width="164" height="54" rx="12"/>
  </g>
</svg>
